<svg width="30" height="30" viewBox="0 0 30 30" fill="none" xmlns="http://www.w3.org/2000/svg">
<path d="M26.8001 13.8124L15.3126 25.2999C13.9053 26.7072 11.9966 27.4978 10.0064 27.4978C8.01614 27.4978 6.10742 26.7072 4.70012 25.2999C3.29281 23.8926 2.5022 21.9839 2.5022 19.9936C2.5022 18.0034 3.29281 16.0947 4.70012 14.6874L16.1876 3.1999C17.1258 2.2617 18.3983 1.73462 19.7251 1.73462C21.0519 1.73462 22.3244 2.2617 23.2626 3.1999C24.2008 4.1381 24.7279 5.41058 24.7279 6.7374C24.7279 8.06422 24.2008 9.3367 23.2626 10.2749L11.7626 21.7624C11.2935 22.2315 10.6573 22.495 9.99387 22.495C9.33046 22.495 8.69422 22.2315 8.22512 21.7624C7.75602 21.2933 7.49248 20.6571 7.49248 19.9936C7.49248 19.3302 7.75602 18.694 8.22512 18.2249L18.8376 7.6249" stroke="white" stroke-width="2.5" stroke-linecap="round" stroke-linejoin="round"/>
</svg>
