<svg width="22" height="18" viewBox="0 0 22 18" fill="none" xmlns="http://www.w3.org/2000/svg">
<path d="M19.8649 12.2313C17.7027 14.8357 14.5351 16.5 11 16.5C7.46487 16.5 4.3081 14.8465 2.13513 12.2313C0.621622 10.4049 0.621622 7.5951 2.13513 5.76873C4.29729 3.16426 7.46487 1.5 11 1.5C14.5351 1.5 17.6919 3.15345 19.8649 5.76873C21.3784 7.5951 21.3784 10.4049 19.8649 12.2313Z" stroke="#ffffff" stroke-width="2" stroke-linecap="round" stroke-linejoin="round"/>
<path d="M11 12.3285C9.16106 12.3285 7.67031 10.8383 7.67031 9C7.67031 7.1617 9.16106 5.67147 11 5.67147C12.839 5.67147 14.3297 7.1617 14.3297 9C14.3297 10.8383 12.839 12.3285 11 12.3285Z" stroke="#ffffff" stroke-width="2" stroke-linecap="round" stroke-linejoin="round"/>
</svg>
