<svg width="82" height="82" viewBox="0 0 82 82" fill="none" xmlns="http://www.w3.org/2000/svg">
<path d="M23.9167 37.5835V23.9168C23.9167 19.386 25.7165 15.0408 28.9203 11.8371C32.124 8.63334 36.4692 6.8335 41 6.8335C45.5308 6.8335 49.876 8.63334 53.0797 11.8371C56.2835 15.0408 58.0833 19.386 58.0833 23.9168V37.5835M17.0833 37.5835H64.9167C68.6906 37.5835 71.75 40.6429 71.75 44.4168V68.3335C71.75 72.1074 68.6906 75.1668 64.9167 75.1668H17.0833C13.3094 75.1668 10.25 72.1074 10.25 68.3335V44.4168C10.25 40.6429 13.3094 37.5835 17.0833 37.5835Z" stroke="#2E519C" stroke-width="4" stroke-linecap="round" stroke-linejoin="round"/>
</svg>
