<svg width="32" height="32" viewBox="0 0 32 32" fill="none" xmlns="http://www.w3.org/2000/svg">
<path d="M8.00033 12V2.66667H24.0003V12M8.00033 24H5.33366C4.62641 24 3.94814 23.719 3.44804 23.219C2.94794 22.7189 2.66699 22.0406 2.66699 21.3333V14.6667C2.66699 13.9594 2.94794 13.2811 3.44804 12.7811C3.94814 12.281 4.62641 12 5.33366 12H26.667C27.3742 12 28.0525 12.281 28.5526 12.7811C29.0527 13.2811 29.3337 13.9594 29.3337 14.6667V21.3333C29.3337 22.0406 29.0527 22.7189 28.5526 23.219C28.0525 23.719 27.3742 24 26.667 24H24.0003M8.00033 18.6667H24.0003V29.3333H8.00033V18.6667Z" stroke="#1E1E1E" stroke-width="3" stroke-linecap="round" stroke-linejoin="round"/>
</svg>
