<svg width="24" height="25" viewBox="0 0 24 25" fill="none" xmlns="http://www.w3.org/2000/svg">
<path d="M15.6002 19.6501H17.4802C19.6602 19.6501 21.2502 17.2301 21.2502 15.1901C21.2367 14.5244 21.0869 13.8687 20.81 13.2632C20.5331 12.6578 20.1349 12.1156 19.6402 11.6701C18.8607 10.9984 17.8464 10.6639 16.8202 10.7401C16.7309 10.7497 16.6404 10.7416 16.5542 10.7161C16.468 10.6906 16.3877 10.6483 16.318 10.5916C16.2482 10.5348 16.1904 10.4648 16.1479 10.3856C16.1054 10.3064 16.079 10.2195 16.0702 10.1301C15.6602 3.61006 5.90024 3.70006 5.75024 10.4001C5.74783 10.5368 5.70597 10.67 5.62968 10.7835C5.5534 10.8971 5.44595 10.9861 5.32024 11.0401C4.39593 11.4978 3.65095 12.2512 3.20348 13.1805C2.75602 14.1099 2.6317 15.162 2.85024 16.1701C2.97527 16.7979 3.2314 17.3924 3.60188 17.9145C3.97237 18.4366 4.44887 18.8747 5.00024 19.2001C5.69139 19.575 6.47635 19.7417 7.26024 19.6801H8.51024" stroke="#C19F60" stroke-width="1.5" stroke-linecap="round" stroke-linejoin="round"/>
<path d="M12 19.6898V12.7598" stroke="#C19F60" stroke-width="1.5" stroke-linecap="round" stroke-linejoin="round"/>
<path d="M9.83008 14.7596L12.0001 12.5996L14.1701 14.7596" stroke="#C19F60" stroke-width="1.5" stroke-linecap="round" stroke-linejoin="round"/>
</svg>
