<svg width="25" height="24" viewBox="0 0 25 24" fill="none" xmlns="http://www.w3.org/2000/svg">
<path d="M4.51108 20.918H20.4889C20.7484 20.9179 21.0035 20.8506 21.2291 20.7224C21.4548 20.5943 21.6434 20.4099 21.7765 20.1871C21.9095 19.9643 21.9825 19.7108 21.9883 19.4513C21.994 19.1919 21.9324 18.9354 21.8094 18.7069L13.8209 3.87094C13.2542 2.81906 11.7458 2.81906 11.1791 3.87094L3.19062 18.7069C3.06759 18.9354 3.00595 19.1919 3.01172 19.4513C3.01749 19.7108 3.09047 19.9643 3.22353 20.1871C3.35658 20.4099 3.54516 20.5943 3.77084 20.7224C3.99652 20.8506 4.25158 20.9179 4.51108 20.918Z" stroke="#DE3737" stroke-width="2" stroke-linecap="round" stroke-linejoin="round"/>
<path d="M12.2309 9.15889L12.5 14.8776L12.7686 9.16124C12.7702 9.12469 12.7644 9.08819 12.7515 9.05397C12.7385 9.01975 12.7188 8.98852 12.6934 8.9622C12.668 8.93588 12.6375 8.91501 12.6037 8.90087C12.57 8.88674 12.5337 8.87963 12.4971 8.87999C12.4612 8.88034 12.4257 8.88789 12.3927 8.90219C12.3597 8.91649 12.33 8.93725 12.3052 8.96325C12.2803 8.98925 12.261 9.01995 12.2482 9.05356C12.2355 9.08716 12.2296 9.12298 12.2309 9.15889Z" stroke="#DE3737" stroke-width="2" stroke-linecap="round" stroke-linejoin="round"/>
<path d="M12.5 18.6211C12.3146 18.6211 12.1333 18.5661 11.9792 18.4631C11.825 18.3601 11.7048 18.2137 11.6339 18.0424C11.5629 17.8711 11.5443 17.6826 11.5805 17.5007C11.6167 17.3188 11.706 17.1518 11.8371 17.0207C11.9682 16.8896 12.1352 16.8003 12.3171 16.7641C12.499 16.7279 12.6875 16.7465 12.8588 16.8175C13.0301 16.8884 13.1765 17.0086 13.2795 17.1627C13.3825 17.3169 13.4375 17.4982 13.4375 17.6836C13.4375 17.9322 13.3387 18.1707 13.1629 18.3465C12.9871 18.5223 12.7486 18.6211 12.5 18.6211Z" fill="#DE3737"/>
</svg>
