<svg width="46" height="40" viewBox="0 0 46 40" fill="none" xmlns="http://www.w3.org/2000/svg">
<path d="M45.5452 14.5857C45.5452 15.087 45.3526 15.5893 44.9698 15.9704L33.7952 27.1231C33.7425 27.1746 33.6866 27.2176 33.6252 27.253C33.2994 27.4462 32.8713 27.4022 32.5917 27.1231L31.0193 25.5538L26.9119 21.4544C26.3666 20.9102 26.3666 20.0289 26.9119 19.4847L27.7142 18.684C28.2595 18.1397 29.1425 18.1397 29.6878 18.684L33.194 22.1833L42.1949 13.1999C42.9607 12.4356 44.2029 12.4356 44.9708 13.1999C45.3537 13.582 45.5462 14.0833 45.5462 14.5846L45.5452 14.5857Z" fill="#86D293"/>
<path d="M0.453125 9.2583H5.05847L11.732 21.391L18.3744 9.2583H23.0109V30.7415H18.3744V17.3582L11.732 29.491L5.05847 17.3582V30.7415H0.453125V9.2583Z" fill="#6256CA"/>
</svg>
