<svg width="76" height="30" viewBox="0 0 76 30" fill="none" xmlns="http://www.w3.org/2000/svg">
<path d="M9.08 13.74C10.0533 13.74 10.8933 13.62 11.6 13.38C12.3067 13.1267 12.8867 12.7867 13.34 12.36C13.7933 11.92 14.1267 11.4067 14.34 10.82C14.5533 10.2333 14.66 9.59334 14.66 8.9C14.66 7.52667 14.2 6.46 13.28 5.7C12.3733 4.94 10.9867 4.56 9.12 4.56H6V13.74H9.08ZM23.14 29.02H17.72C16.7067 29.02 15.9733 28.6333 15.52 27.86L10 18.96C9.77333 18.6133 9.52 18.36 9.24 18.2C8.97333 18.04 8.57333 17.96 8.04 17.96H6V29.02H-7.15256e-07V2.38419e-06H9.12C11.1467 2.38419e-06 12.88 0.213336 14.32 0.640004C15.76 1.05334 16.94 1.63334 17.86 2.38C18.78 3.12667 19.4533 4.02 19.88 5.06C20.3067 6.08667 20.52 7.22 20.52 8.46C20.52 9.42 20.38 10.3333 20.1 11.2C19.8333 12.0533 19.44 12.8333 18.92 13.54C18.4 14.2467 17.76 14.8733 17 15.42C16.24 15.9667 15.3733 16.4067 14.4 16.74C14.7867 16.9533 15.1467 17.2133 15.48 17.52C15.8133 17.8133 16.1133 18.1667 16.38 18.58L23.14 29.02ZM50.8366 2.38419e-06V29.02H44.7966V16.52H32.0166V29.02H25.9766V2.38419e-06H32.0166V12.32H44.7966V2.38419e-06H50.8366ZM75.2941 17.6H67.6941V25.7H63.2141V17.6H55.6541V13.58H63.2141V5.5H67.6941V13.58H75.2941V17.6Z" fill="#2E519C"/>
</svg>
