<svg width="330" height="64" viewBox="0 0 330 64" fill="none" xmlns="http://www.w3.org/2000/svg">
<path d="M70.3873 23.5484C70.3873 24.3309 70.0868 25.115 69.4891 25.7098L52.046 43.1189C51.9638 43.1993 51.8765 43.2664 51.7808 43.3216C51.2721 43.6232 50.6039 43.5545 50.1674 43.1189L47.7129 40.6692L41.3015 34.2703C40.4503 33.4208 40.4503 32.0451 41.3015 31.1956L42.5539 29.9457C43.405 29.0961 44.7834 29.0961 45.6345 29.9457L51.1075 35.408L65.1577 21.3852C66.3531 20.1922 68.2921 20.1922 69.4908 21.3852C70.0885 21.9817 70.389 22.7642 70.389 23.5467L70.3873 23.5484Z" fill="#86D293"/>
<path d="M0 15.2327H7.18878L17.606 34.1715L27.9745 15.2327H35.2119V48.7673H27.9745V27.8764L17.606 46.8153L7.18878 27.8764V48.7673H0V15.2327Z" fill="#6256CA"/>
<path d="M86.3887 17.7491H92.4073L101.129 33.6066L109.81 17.7491H115.871V45.8248H109.81V28.3337L101.129 44.1895L92.4073 28.3337V45.8248H86.3887V17.7491Z" fill="#6256CA"/>
<path d="M136.341 39.1647L140.149 43.047C138.265 45.0091 134.621 46.316 131.51 46.316C125.204 46.316 120.29 41.6982 120.29 35.2004C120.29 28.7026 124.999 24.207 131.182 24.207C137.815 24.207 141.705 29.2337 141.705 37.2027H126.431C127.128 39.4915 128.97 41.0447 131.468 41.0447C133.147 41.0447 135.195 40.2689 136.34 39.1647H136.341ZM126.515 32.9116H135.974C135.401 30.8272 133.845 29.4783 131.429 29.4783C129.178 29.4783 127.294 30.7853 126.515 32.9116Z" fill="#6256CA"/>
<path d="M167.549 17.2581V45.8247H161.571V42.8003C159.892 45.007 157.436 46.3156 154.446 46.3156C148.795 46.3156 144.7 41.738 144.7 35.2402C144.7 28.7423 148.795 24.2066 154.446 24.2066C157.434 24.2066 159.892 25.5135 161.571 27.7202V17.2581H167.549ZM161.571 35.2402C161.571 31.7265 159.32 29.2333 156.165 29.2333C152.848 29.2333 150.514 31.7265 150.514 35.2402C150.514 38.7538 152.848 41.2889 156.165 41.2889C159.482 41.2889 161.571 38.7957 161.571 35.2402Z" fill="#6256CA"/>
<path d="M171.847 32.0586C171.847 24.1717 178.727 17.5499 186.792 17.5499C191.051 17.5499 194.981 19.3478 197.724 22.2499L193.342 26.1724C191.704 24.2924 189.37 23.0257 186.792 23.0257C182.083 23.0257 178.07 27.1944 178.07 32.0569C178.07 36.9194 182.083 41.1284 186.792 41.1284C189.372 41.1284 191.706 39.8617 193.342 37.9817L197.724 41.9042C194.981 44.766 191.049 46.6041 186.792 46.6041C178.725 46.6041 171.847 39.9421 171.847 32.0552V32.0586Z" fill="#86D293"/>
<path d="M200.104 35.532C200.104 29.5251 205.386 24.4984 211.692 24.4984C217.998 24.4984 223.199 29.5251 223.199 35.532C223.199 41.5388 217.957 46.6074 211.692 46.6074C205.426 46.6074 200.104 41.5388 200.104 35.532ZM217.507 35.532C217.507 32.263 214.846 29.5251 211.694 29.5251C208.541 29.5251 205.838 32.263 205.838 35.532C205.838 38.801 208.499 41.5807 211.694 41.5807C214.888 41.5807 217.507 38.8027 217.507 35.532Z" fill="#86D293"/>
<path d="M247.358 32.6718V46.1165H241.585V33.9385C241.585 31.323 239.946 29.5251 237.573 29.5251C235.074 29.5251 233.15 31.323 233.15 33.6118L233.11 33.4895V46.1182H227.132V24.9894H233.11V27.6451C234.379 25.7249 236.755 24.4984 239.498 24.4984C244.085 24.4984 247.36 27.8897 247.36 32.6718H247.358Z" fill="#86D293"/>
<path d="M259.48 24.9894H264.066V29.8117H259.48V46.1182H253.747V29.8117H250.839V24.9894H253.747V23.1497C253.747 19.3495 256.367 16.6937 260.093 16.6937C261.812 16.6937 263.737 17.4293 264.965 18.5335L263.531 22.1711C263.121 21.7623 262.302 21.4758 261.483 21.4758C260.376 21.4758 259.476 22.456 259.476 23.8467V24.9911L259.48 24.9894Z" fill="#86D293"/>
<path d="M282.781 39.4561L286.588 43.3384C284.705 45.3005 281.06 46.6074 277.949 46.6074C271.643 46.6074 266.729 41.9896 266.729 35.4918C266.729 28.9939 271.439 24.4984 277.622 24.4984C284.255 24.4984 288.145 29.5251 288.145 37.494H272.871C273.567 39.7829 275.409 41.3361 277.907 41.3361C279.586 41.3361 281.634 40.5603 282.779 39.4561H282.781ZM272.953 33.2029H282.412C281.839 31.1185 280.283 29.7697 277.867 29.7697C275.616 29.7697 273.732 31.0767 272.953 33.2029Z" fill="#86D293"/>
<path d="M305.426 24.4984V29.5251C301.004 29.5251 298.179 32.0585 298.179 36.0229V46.1165H292.2V24.9894H298.179V28.9118C299.57 26.174 302.191 24.4984 305.426 24.4984Z" fill="#86D293"/>
<path d="M323.732 39.4561L327.54 43.3384C325.656 45.3005 322.011 46.6074 318.9 46.6074C312.595 46.6074 307.681 41.9896 307.681 35.4918C307.681 28.9939 312.39 24.4984 318.573 24.4984C325.206 24.4984 329.096 29.5251 329.096 37.494H313.822C314.519 39.7829 316.36 41.3361 318.858 41.3361C320.537 41.3361 322.585 40.5603 323.73 39.4561H323.732ZM313.904 33.2029H323.363C322.79 31.1185 321.234 29.7697 318.818 29.7697C316.567 29.7697 314.683 31.0767 313.904 33.2029Z" fill="#86D293"/>
</svg>
