<svg width="44" height="44" viewBox="0 0 44 44" fill="none" xmlns="http://www.w3.org/2000/svg">
<rect width="44" height="44" fill="#1B1B1B"/>
<path d="M39.3066 20.2583L22.4583 37.1066C20.3942 39.1706 17.5948 40.3302 14.6758 40.3302C11.7568 40.3302 8.95734 39.1706 6.89329 37.1066C4.82925 35.0426 3.66968 32.2431 3.66968 29.3241C3.66968 26.4051 4.82925 23.6056 6.89329 21.5416L23.7416 4.69327C25.1177 3.31724 26.984 2.54419 28.93 2.54419C30.876 2.54419 32.7423 3.31724 34.1183 4.69327C35.4943 6.0693 36.2674 7.9356 36.2674 9.8816C36.2674 11.8276 35.4943 13.6939 34.1183 15.0699L17.2516 31.9183C16.5636 32.6063 15.6305 32.9928 14.6575 32.9928C13.6845 32.9928 12.7513 32.6063 12.0633 31.9183C11.3753 31.2303 10.9888 30.2971 10.9888 29.3241C10.9888 28.3511 11.3753 27.418 12.0633 26.7299L27.6283 11.1833" stroke="white" stroke-width="4" stroke-linecap="round" stroke-linejoin="round"/>
</svg>
