<svg width="44" height="44" viewBox="0 0 44 44" fill="none" xmlns="http://www.w3.org/2000/svg">
<rect width="44" height="44" fill="#1B1B1B"/>
<path d="M39.3066 20.2585L22.4583 37.1068C20.3942 39.1709 17.5948 40.3305 14.6758 40.3305C11.7568 40.3305 8.95734 39.1709 6.89329 37.1068C4.82925 35.0428 3.66968 32.2433 3.66968 29.3243C3.66968 26.4053 4.82925 23.6059 6.89329 21.5418L23.7416 4.69351C25.1177 3.31748 26.984 2.54443 28.93 2.54443C30.876 2.54443 32.7423 3.31748 34.1183 4.69351C35.4943 6.06954 36.2674 7.93584 36.2674 9.88184C36.2674 11.8278 35.4943 13.6941 34.1183 15.0702L17.2516 31.9185C16.5636 32.6065 15.6305 32.9931 14.6575 32.9931C13.6845 32.9931 12.7513 32.6065 12.0633 31.9185C11.3753 31.2305 10.9888 30.2973 10.9888 29.3243C10.9888 28.3513 11.3753 27.4182 12.0633 26.7302L27.6283 11.1835" stroke="#2E519C" stroke-width="4" stroke-linecap="round" stroke-linejoin="round"/>
</svg>
