<svg width="44" height="44" viewBox="0 0 44 44" fill="none" xmlns="http://www.w3.org/2000/svg">
<g clip-path="url(#clip0_472_379)">
<rect width="44" height="44" fill="#1B1B1B"/>
<path d="M22 27.5002C25.0376 27.5002 27.5 25.0377 27.5 22.0002C27.5 18.9626 25.0376 16.5002 22 16.5002C18.9625 16.5002 16.5 18.9626 16.5 22.0002C16.5 25.0377 18.9625 27.5002 22 27.5002Z" stroke="white" stroke-width="4" stroke-linecap="round" stroke-linejoin="round"/>
<path d="M35.5667 27.5002C35.3227 28.0531 35.2499 28.6665 35.3577 29.2612C35.4655 29.856 35.7491 30.4048 36.1717 30.8368L36.2817 30.9468C36.6226 31.2874 36.8931 31.6918 37.0776 32.1369C37.2621 32.582 37.3571 33.0591 37.3571 33.541C37.3571 34.0229 37.2621 34.5 37.0776 34.9451C36.8931 35.3902 36.6226 35.7946 36.2817 36.1352C35.9412 36.4761 35.5368 36.7465 35.0917 36.9311C34.6465 37.1156 34.1694 37.2106 33.6875 37.2106C33.2057 37.2106 32.7286 37.1156 32.2834 36.9311C31.8383 36.7465 31.4339 36.4761 31.0934 36.1352L30.9834 36.0252C30.5513 35.6025 30.0025 35.319 29.4078 35.2112C28.8131 35.1033 28.1997 35.1761 27.6467 35.4202C27.1045 35.6526 26.642 36.0384 26.3163 36.5303C25.9905 37.0222 25.8157 37.5986 25.8134 38.1885V38.5002C25.8134 39.4726 25.4271 40.4053 24.7394 41.0929C24.0518 41.7805 23.1192 42.1668 22.1467 42.1668C21.1742 42.1668 20.2416 41.7805 19.554 41.0929C18.8664 40.4053 18.48 39.4726 18.48 38.5002V38.3352C18.4658 37.7283 18.2694 37.1398 17.9163 36.6461C17.5632 36.1524 17.0697 35.7764 16.5 35.5668C15.9471 35.3228 15.3337 35.25 14.739 35.3578C14.1442 35.4657 13.5955 35.7492 13.1634 36.1718L13.0534 36.2818C12.7128 36.6227 12.3084 36.8932 11.8633 37.0777C11.4182 37.2622 10.9411 37.3572 10.4592 37.3572C9.97735 37.3572 9.50022 37.2622 9.05509 37.0777C8.60997 36.8932 8.20558 36.6227 7.86504 36.2818C7.52413 35.9413 7.25368 35.5369 7.06916 35.0918C6.88463 34.6467 6.78966 34.1695 6.78966 33.6877C6.78966 33.2058 6.88463 32.7287 7.06916 32.2836C7.25368 31.8384 7.52413 31.434 7.86504 31.0935L7.97504 30.9835C8.39769 30.5514 8.68121 30.0026 8.78905 29.4079C8.89688 28.8132 8.82409 28.1998 8.58004 27.6468C8.34764 27.1046 7.96176 26.6421 7.46989 26.3164C6.97803 25.9907 6.40165 25.8159 5.81171 25.8135H5.50004C4.52758 25.8135 3.59495 25.4272 2.90732 24.7396C2.21968 24.0519 1.83337 23.1193 1.83337 22.1468C1.83337 21.1744 2.21968 20.2417 2.90732 19.5541C3.59495 18.8665 4.52758 18.4802 5.50004 18.4802H5.66504C6.27186 18.466 6.86038 18.2695 7.35409 17.9164C7.8478 17.5633 8.22385 17.0698 8.43337 16.5002C8.67742 15.9472 8.75022 15.3338 8.64238 14.7391C8.53455 14.1444 8.25103 13.5956 7.82837 13.1635L7.71837 13.0535C7.37746 12.713 7.10701 12.3086 6.92249 11.8634C6.73797 11.4183 6.64299 10.9412 6.64299 10.4593C6.64299 9.97747 6.73797 9.50034 6.92249 9.05522C7.10701 8.61009 7.37746 8.2057 7.71837 7.86516C8.05891 7.52425 8.4633 7.2538 8.90843 7.06928C9.35355 6.88476 9.83068 6.78978 10.3125 6.78978C10.7944 6.78978 11.2715 6.88476 11.7167 7.06928C12.1618 7.2538 12.5662 7.52425 12.9067 7.86516L13.0167 7.97516C13.4488 8.39781 13.9976 8.68134 14.5923 8.78917C15.187 8.89701 15.8004 8.82421 16.3534 8.58016H16.5C17.0423 8.34776 17.5047 7.96188 17.8305 7.47002C18.1562 6.97815 18.331 6.40177 18.3334 5.81183V5.50016C18.3334 4.5277 18.7197 3.59507 19.4073 2.90744C20.095 2.2198 21.0276 1.8335 22 1.8335C22.9725 1.8335 23.9051 2.2198 24.5928 2.90744C25.2804 3.59507 25.6667 4.5277 25.6667 5.50016V5.66516C25.6691 6.2551 25.8439 6.83148 26.1696 7.32335C26.4953 7.81522 26.9578 8.2011 27.5 8.4335C28.053 8.67754 28.6664 8.75034 29.2611 8.6425C29.8558 8.53467 30.4046 8.25115 30.8367 7.8285L30.9467 7.7185C31.2872 7.37758 31.6916 7.10713 32.1368 6.92261C32.5819 6.73809 33.059 6.64311 33.5409 6.64311C34.0227 6.64311 34.4999 6.73809 34.945 6.92261C35.3901 7.10713 35.7945 7.37758 36.135 7.7185C36.476 8.05903 36.7464 8.46342 36.9309 8.90855C37.1155 9.35368 37.2104 9.83081 37.2104 10.3127C37.2104 10.7945 37.1155 11.2717 36.9309 11.7168C36.7464 12.1619 36.476 12.5663 36.135 12.9068L36.025 13.0168C35.6024 13.4489 35.3189 13.9977 35.211 14.5924C35.1032 15.1871 35.176 15.8005 35.42 16.3535V16.5002C35.6524 17.0424 36.0383 17.5049 36.5302 17.8306C37.0221 18.1563 37.5984 18.3311 38.1884 18.3335H38.5C39.4725 18.3335 40.4051 18.7198 41.0928 19.4074C41.7804 20.0951 42.1667 21.0277 42.1667 22.0002C42.1667 22.9726 41.7804 23.9053 41.0928 24.5929C40.4051 25.2805 39.4725 25.6668 38.5 25.6668H38.335C37.7451 25.6692 37.1687 25.844 36.6769 26.1697C36.185 26.4955 35.7991 26.9579 35.5667 27.5002Z" stroke="white" stroke-width="4" stroke-linecap="round" stroke-linejoin="round"/>
</g>
<defs>
<clipPath id="clip0_472_379">
<rect width="44" height="44" fill="white"/>
</clipPath>
</defs>
</svg>
