<svg width="44" height="44" viewBox="0 0 44 44" fill="none" xmlns="http://www.w3.org/2000/svg">
<g clip-path="url(#clip0_472_410)">
<rect width="44" height="44" fill="#1B1B1B"/>
<path d="M22 27.4999C25.0376 27.4999 27.5 25.0375 27.5 21.9999C27.5 18.9624 25.0376 16.4999 22 16.4999C18.9625 16.4999 16.5 18.9624 16.5 21.9999C16.5 25.0375 18.9625 27.4999 22 27.4999Z" stroke="#2E519C" stroke-width="4" stroke-linecap="round" stroke-linejoin="round"/>
<path d="M35.5667 27.4999C35.3227 28.0529 35.2499 28.6663 35.3577 29.261C35.4655 29.8557 35.7491 30.4045 36.1717 30.8366L36.2817 30.9466C36.6226 31.2871 36.8931 31.6915 37.0776 32.1366C37.2621 32.5818 37.3571 33.0589 37.3571 33.5408C37.3571 34.0226 37.2621 34.4997 37.0776 34.9449C36.8931 35.39 36.6226 35.7944 36.2817 36.1349C35.9412 36.4758 35.5368 36.7463 35.0917 36.9308C34.6465 37.1153 34.1694 37.2103 33.6875 37.2103C33.2057 37.2103 32.7286 37.1153 32.2834 36.9308C31.8383 36.7463 31.4339 36.4758 31.0934 36.1349L30.9834 36.0249C30.5513 35.6023 30.0025 35.3187 29.4078 35.2109C28.8131 35.1031 28.1997 35.1759 27.6467 35.4199C27.1045 35.6523 26.642 36.0382 26.3163 36.5301C25.9905 37.0219 25.8157 37.5983 25.8134 38.1883V38.4999C25.8134 39.4724 25.4271 40.405 24.7394 41.0926C24.0518 41.7803 23.1192 42.1666 22.1467 42.1666C21.1742 42.1666 20.2416 41.7803 19.554 41.0926C18.8664 40.405 18.48 39.4724 18.48 38.4999V38.3349C18.4658 37.7281 18.2694 37.1396 17.9163 36.6459C17.5632 36.1522 17.0697 35.7761 16.5 35.5666C15.9471 35.3225 15.3337 35.2497 14.739 35.3576C14.1442 35.4654 13.5955 35.7489 13.1634 36.1716L13.0534 36.2816C12.7128 36.6225 12.3084 36.893 11.8633 37.0775C11.4182 37.262 10.9411 37.357 10.4592 37.357C9.97735 37.357 9.50022 37.262 9.05509 37.0775C8.60997 36.893 8.20558 36.6225 7.86504 36.2816C7.52413 35.9411 7.25368 35.5367 7.06916 35.0915C6.88463 34.6464 6.78966 34.1693 6.78966 33.6874C6.78966 33.2056 6.88463 32.7284 7.06916 32.2833C7.25368 31.8382 7.52413 31.4338 7.86504 31.0933L7.97504 30.9833C8.39769 30.5512 8.68121 30.0024 8.78905 29.4077C8.89688 28.8129 8.82409 28.1996 8.58004 27.6466C8.34764 27.1043 7.96176 26.6419 7.46989 26.3162C6.97803 25.9904 6.40165 25.8156 5.81171 25.8133H5.50004C4.52758 25.8133 3.59495 25.4269 2.90732 24.7393C2.21968 24.0517 1.83337 23.119 1.83337 22.1466C1.83337 21.1741 2.21968 20.2415 2.90732 19.5539C3.59495 18.8662 4.52758 18.4799 5.50004 18.4799H5.66504C6.27186 18.4657 6.86038 18.2693 7.35409 17.9162C7.8478 17.5631 8.22385 17.0696 8.43337 16.4999C8.67742 15.947 8.75022 15.3336 8.64238 14.7388C8.53455 14.1441 8.25103 13.5953 7.82837 13.1633L7.71837 13.0533C7.37746 12.7127 7.10701 12.3083 6.92249 11.8632C6.73797 11.4181 6.64299 10.9409 6.64299 10.4591C6.64299 9.97723 6.73797 9.5001 6.92249 9.05497C7.10701 8.60985 7.37746 8.20545 7.71837 7.86492C8.05891 7.52401 8.4633 7.25356 8.90843 7.06903C9.35355 6.88451 9.83068 6.78953 10.3125 6.78953C10.7944 6.78953 11.2715 6.88451 11.7167 7.06903C12.1618 7.25356 12.5662 7.52401 12.9067 7.86492L13.0167 7.97492C13.4488 8.39757 13.9976 8.68109 14.5923 8.78893C15.187 8.89676 15.8004 8.82396 16.3534 8.57992H16.5C17.0423 8.34752 17.5047 7.96164 17.8305 7.46977C18.1562 6.97791 18.331 6.40153 18.3334 5.81159V5.49992C18.3334 4.52746 18.7197 3.59483 19.4073 2.90719C20.095 2.21956 21.0276 1.83325 22 1.83325C22.9725 1.83325 23.9051 2.21956 24.5928 2.90719C25.2804 3.59483 25.6667 4.52746 25.6667 5.49992V5.66492C25.6691 6.25486 25.8439 6.83124 26.1696 7.32311C26.4953 7.81497 26.9578 8.20085 27.5 8.43325C28.053 8.6773 28.6664 8.7501 29.2611 8.64226C29.8558 8.53443 30.4046 8.2509 30.8367 7.82825L30.9467 7.71825C31.2872 7.37734 31.6916 7.10689 32.1368 6.92237C32.5819 6.73784 33.059 6.64287 33.5409 6.64287C34.0227 6.64287 34.4999 6.73784 34.945 6.92237C35.3901 7.10689 35.7945 7.37734 36.135 7.71825C36.476 8.05879 36.7464 8.46318 36.9309 8.9083C37.1155 9.35343 37.2104 9.83056 37.2104 10.3124C37.2104 10.7943 37.1155 11.2714 36.9309 11.7165C36.7464 12.1617 36.476 12.5661 36.135 12.9066L36.025 13.0166C35.6024 13.4487 35.3189 13.9974 35.211 14.5922C35.1032 15.1869 35.176 15.8003 35.42 16.3533V16.4999C35.6524 17.0422 36.0383 17.5046 36.5302 17.8304C37.0221 18.1561 37.5984 18.3309 38.1884 18.3333H38.5C39.4725 18.3333 40.4051 18.7196 41.0928 19.4072C41.7804 20.0948 42.1667 21.0275 42.1667 21.9999C42.1667 22.9724 41.7804 23.905 41.0928 24.5926C40.4051 25.2803 39.4725 25.6666 38.5 25.6666H38.335C37.7451 25.6689 37.1687 25.8437 36.6769 26.1695C36.185 26.4952 35.7991 26.9577 35.5667 27.4999Z" stroke="#2E519C" stroke-width="4" stroke-linecap="round" stroke-linejoin="round"/>
</g>
<defs>
<clipPath id="clip0_472_410">
<rect width="44" height="44" fill="white"/>
</clipPath>
</defs>
</svg>
